<svg width="56" height="56" viewBox="0 0 56 56" fill="none" xmlns="http://www.w3.org/2000/svg">
<rect width="56" height="56" rx="8" fill="#1F1D2B"/>
<path d="M25.7303 18.7884C27.0003 17.7794 28.7803 17.7394 30.0893 18.6684L30.2503 18.7884L36.3393 23.6594C37.0093 24.1784 37.4203 24.9494 37.4903 25.7884L37.5003 25.9894V34.0984C37.5003 36.1884 35.8493 37.8884 33.7803 37.9984H31.7903C30.8393 37.9794 30.0703 37.2394 30.0003 36.3094L29.9903 36.1684V33.3094C29.9903 32.9984 29.7593 32.7394 29.4503 32.6884L29.3603 32.6784H26.6893C26.3703 32.6884 26.1103 32.9184 26.0703 33.2184L26.0603 33.3094V36.1594C26.0603 36.2184 26.0493 36.2884 26.0403 36.3384L26.0303 36.3594L26.0193 36.4284C25.9003 37.2794 25.2003 37.9284 24.3303 37.9894L24.2003 37.9984H22.4103C20.3203 37.9984 18.6103 36.3594 18.5003 34.2984V25.9894C18.5093 25.1384 18.8803 24.3484 19.5003 23.7984L25.7303 18.7884ZM29.3803 19.8784C28.6203 19.2684 27.5403 19.2394 26.7403 19.7684L26.5893 19.8784L20.5093 24.7794C20.1603 25.0384 19.9503 25.4284 19.9003 25.8384L19.8893 25.9984V34.0984C19.8893 35.4284 20.9293 36.5184 22.2503 36.5984H24.2003C24.4203 36.5984 24.6103 36.4494 24.6393 36.2394L24.6603 36.0594L24.6703 36.0084V33.3094C24.6703 32.2394 25.4903 31.3694 26.5403 31.2884H29.3603C30.4293 31.2884 31.2993 32.1094 31.3803 33.1594V36.1684C31.3803 36.3784 31.5303 36.5594 31.7303 36.5984H33.5893C34.9293 36.5984 36.0193 35.5694 36.0993 34.2584L36.1103 34.0984V25.9984C36.0993 25.5694 35.9203 25.1684 35.6103 24.8694L35.4803 24.7584L29.3803 19.8784Z" fill="#EA7C69"/>
</svg>
