<svg width="20" height="20" viewBox="0 0 20 20" fill="none" xmlns="http://www.w3.org/2000/svg">
<path d="M15.8334 1.66663H4.16669C2.78835 1.66663 1.66669 2.78829 1.66669 4.16663V6.52579C1.66669 7.40329 1.98502 8.20079 2.50002 8.81413V16.6666C2.50002 16.8876 2.58782 17.0996 2.7441 17.2559C2.90038 17.4122 3.11234 17.5 3.33335 17.5H10C10.221 17.5 10.433 17.4122 10.5893 17.2559C10.7456 17.0996 10.8334 16.8876 10.8334 16.6666V12.5H14.1667V16.6666C14.1667 16.8876 14.2545 17.0996 14.4108 17.2559C14.567 17.4122 14.779 17.5 15 17.5H16.6667C16.8877 17.5 17.0997 17.4122 17.2559 17.2559C17.4122 17.0996 17.5 16.8876 17.5 16.6666V8.81329C18.015 8.20079 18.3334 7.40329 18.3334 6.52496V4.16663C18.3334 2.78829 17.2117 1.66663 15.8334 1.66663ZM16.6667 4.16663V6.52579C16.6667 7.47579 15.9592 8.28579 15.0909 8.33163L15 8.33329C14.0809 8.33329 13.3334 7.58579 13.3334 6.66663V3.33329H15.8334C16.2934 3.33329 16.6667 3.70746 16.6667 4.16663ZM8.33335 6.66663V3.33329H11.6667V6.66663C11.6667 7.58579 10.9192 8.33329 10 8.33329C9.08085 8.33329 8.33335 7.58579 8.33335 6.66663ZM3.33335 4.16663C3.33335 3.70746 3.70669 3.33329 4.16669 3.33329H6.66669V6.66663C6.66669 7.58579 5.91919 8.33329 5.00002 8.33329L4.90919 8.33079C4.04085 8.28579 3.33335 7.47579 3.33335 6.52579V4.16663ZM8.33335 13.3333H5.00002V10.8333H8.33335V13.3333Z" fill="url(#paint0_linear_17_890)"/>
<defs>
<linearGradient id="paint0_linear_17_890" x1="10" y1="1.66663" x2="10" y2="17.5" gradientUnits="userSpaceOnUse">
<stop stop-color="#EA9769"/>
<stop offset="1" stop-color="#EA6969"/>
</linearGradient>
</defs>
</svg>
